HIERARCHY
ROOT Hips
{
	OFFSET 0.00000 0.00000 0.00000
	CHANNELS 6 Xposition Yposition Zposition Zrotation Yrotation Xrotation 
	JOINT LHipJoint
	{
		OFFSET 0 0 0
		CHANNELS 3 Zrotation Yrotation Xrotation
		JOINT LeftUpLeg
		{
			OFFSET 1.56741 -1.82513 0.67319
			CHANNELS 3 Zrotation Yrotation Xrotation
			JOINT LeftLeg
			{
				OFFSET 2.35708 -6.47604 0.00000
				CHANNELS 3 Zrotation Yrotation Xrotation
				JOINT LeftFoot
				{
					OFFSET 2.70636 -7.43567 0.00000
					CHANNELS 3 Zrotation Yrotation Xrotation
					JOINT LeftToeBase
					{
						OFFSET 0.20427 -0.56122 2.08535
						CHANNELS 3 Zrotation Yrotation Xrotation
						End Site
						{
							OFFSET 0.00000 -0.00000 1.08535
						}
					}
				}
			}
		}
	}
	JOINT RHipJoint
	{
		OFFSET 0 0 0
		CHANNELS 3 Zrotation Yrotation Xrotation
		JOINT RightUpLeg
		{
			OFFSET -1.51422 -1.82513 0.67319
			CHANNELS 3 Zrotation Yrotation Xrotation
			JOINT RightLeg
			{
				OFFSET -2.48824 -6.83638 0.00000
				CHANNELS 3 Zrotation Yrotation Xrotation
				JOINT RightFoot
				{
					OFFSET -2.70033 -7.41909 0.00000
					CHANNELS 3 Zrotation Yrotation Xrotation
					JOINT RightToeBase
					{
						OFFSET -0.19750 -0.54263 2.22151
						CHANNELS 3 Zrotation Yrotation Xrotation
						End Site
						{
							OFFSET -0.00000 -0.00000 1.14915
						}
					}
				}
			}
		}
	}
	JOINT LowerBack
	{
		OFFSET 0 0 0
		CHANNELS 3 Zrotation Yrotation Xrotation
		JOINT Spine
		{
			OFFSET -0.01567 2.12874 -0.15842
			CHANNELS 3 Zrotation Yrotation Xrotation
			JOINT Spine1
			{
				OFFSET 0.06098 2.13326 -0.01043
				CHANNELS 3 Zrotation Yrotation Xrotation
				JOINT Neck
				{
					OFFSET 0 0 0
					CHANNELS 3 Zrotation Yrotation Xrotation
					JOINT Neck1
					{
						OFFSET -0.05040 1.78432 0.13387
						CHANNELS 3 Zrotation Yrotation Xrotation
						JOINT Head
						{
							OFFSET -0.00180 1.76880 -0.33303
							CHANNELS 3 Zrotation Yrotation Xrotation
							End Site
							{
								OFFSET 0.00734 1.81249 -0.12719
							}
						}
					}
				}
				JOINT LeftShoulder
				{
					OFFSET 0 0 0
					CHANNELS 3 Zrotation Yrotation Xrotation
					JOINT LeftArm
					{
						OFFSET 3.72199 0.94188 -0.54317
						CHANNELS 3 Zrotation Yrotation Xrotation
						JOINT LeftForeArm
						{
							OFFSET 5.14601 -0.00000 0.00000
							CHANNELS 3 Zrotation Yrotation Xrotation
							JOINT LeftHand
							{
								OFFSET 3.64452 -0.00000 -0.00000
								CHANNELS 3 Zrotation Yrotation Xrotation
								JOINT LeftFingerBase
								{
									OFFSET 0 0 0
									CHANNELS 3 Zrotation Yrotation Xrotation
									JOINT LeftHandIndex1
									{
										OFFSET 0.56228 -0.00000 0.00000
										CHANNELS 3 Zrotation Yrotation Xrotation
										End Site
										{
											OFFSET 0.45332 -0.00000 0.00000
										}
									}
								}
								JOINT LThumb
								{
									OFFSET 0 0 0
									CHANNELS 3 Zrotation Yrotation Xrotation
									End Site
									{
										OFFSET 0.46025 -0.00000 0.46025
									}
								}
							}
						}
					}
				}
				JOINT RightShoulder
				{
					OFFSET 0 0 0
					CHANNELS 3 Zrotation Yrotation Xrotation
					JOINT RightArm
					{
						OFFSET -3.30253 1.22679 -0.46941
						CHANNELS 3 Zrotation Yrotation Xrotation
						JOINT RightForeArm
						{
							OFFSET -5.33913 -0.00000 0.00000
							CHANNELS 3 Zrotation Yrotation Xrotation
							JOINT RightHand
							{
								OFFSET -3.56478 -0.00000 -0.00000
								CHANNELS 3 Zrotation Yrotation Xrotation
								JOINT RightFingerBase
								{
									OFFSET 0 0 0
									CHANNELS 3 Zrotation Yrotation Xrotation
									JOINT RightHandIndex1
									{
										OFFSET -0.85747 -0.00000 0.00000
										CHANNELS 3 Zrotation Yrotation Xrotation
										End Site
										{
											OFFSET -0.69132 -0.00000 0.00000
										}
									}
								}
								JOINT RThumb
								{
									OFFSET 0 0 0
									CHANNELS 3 Zrotation Yrotation Xrotation
									End Site
									{
										OFFSET -0.70187 -0.00000 0.70187
									}
								}
							}
						}
					}
				}
			}
		}
	}
}
MOTION
Frames: 6
Frame Time: 0.0454545
0.00 0.00 0.00 0.0400 -68.7870 359.9960 0.0000 0.0000 0.0000 -11.6722 -5.5711 -21.5170 5.1655 13.5678 41.5329 -0.0851 -20.1526 -13.4749 0.8003 -5.7096 -15.9442 0.0000 0.0000 0.0000 13.4333 -5.2792 -16.3401 -6.6387 -15.0200 47.4943 -1.8911 -0.7263 -26.2883 -0.1035 2.0743 -5.7110 -2.2420 0.8394 8.1475 3.3864 0.9434 2.7700 4.6878 0.4277 -1.7921 -4.2376 2.2307 -21.0628 -0.3737 4.4408 17.6892 1.1608 1.7261 8.9322 0.0000 0.0000 0.0000 -73.9548 -10.9957 38.8460 86.0120 -59.9398 -56.5470 -0.0000 0.0000 -32.1305 -14.4730 22.8842 -5.7318 -7.1250 0.0000 -0.0000 -41.1596 48.2954 -3.9846 0.0000 0.0000 0.0000 67.9670 -1.2896 29.5142 -107.9102 58.7526 -75.4457 0.0000 -0.0000 -27.1248 32.0429 16.0187 9.7995 7.1250 -0.0000 -0.0000 35.9416 -11.9554 35.9982
0.00 0.00 0.00 -2.2152 -68.2835 361.6750 0.0000 0.0000 0.0000 -10.9384 -6.5421 -20.6444 5.1992 13.6047 41.6763 -0.0014 -19.7200 -13.8662 0.7857 -5.6586 -15.7970 0.0000 0.0000 0.0000 14.3130 -5.3788 -15.2616 -6.5160 -14.9104 47.0191 -1.8275 -1.2931 -26.0540 -0.1544 2.5322 -6.9789 -1.2721 0.7714 8.5118 3.5006 0.9562 2.1318 4.2509 0.4586 -2.6439 -4.2519 2.2754 -21.0329 0.0484 4.4291 18.4210 1.3166 1.7480 9.1676 -0.0000 -0.0000 0.0000 -70.3677 -11.1312 32.3180 104.0295 -59.2431 -72.1190 -0.0000 0.0000 -36.7454 5.9876 27.6394 2.7856 -7.1250 0.0000 -0.0000 -26.1214 55.7689 -7.2573 -0.0000 -0.0000 0.0000 65.2971 -2.3543 21.1190 -121.4490 55.9113 -86.8617 0.0000 -0.0000 -22.5147 29.3123 16.6689 9.1488 7.1250 -0.0000 -0.0000 34.6629 -12.0402 33.8082
0.00 0.00 0.00 -3.3528 -68.0900 362.4400 0.0000 0.0000 0.0000 -10.3820 -5.7733 -20.4674 5.2977 13.7114 42.0934 -0.0599 -20.9639 -14.2852 0.7350 -5.4772 -15.2747 0.0000 0.0000 0.0000 14.7084 -5.8748 -14.5848 -6.4964 -14.8927 46.9430 -1.8928 -0.5302 -26.2307 -0.0722 1.7335 -4.7697 -0.8322 0.5514 8.6596 3.3243 0.7411 1.1204 3.8415 0.3808 -3.7504 -3.9746 3.0476 -21.3233 -0.1219 5.5046 20.1650 1.3959 2.1896 9.8200 0.0000 0.0000 0.0000 -64.7594 -11.3648 15.4361 119.7834 -56.3674 -85.4786 -0.0000 0.0000 -19.9297 -13.3640 19.8469 -4.6113 -7.1250 0.0000 -0.0000 -38.3455 46.0059 -1.1191 0.0000 0.0000 0.0000 59.5867 -2.6950 8.1350 -136.2812 50.1252 -98.7491 0.0000 -0.0000 -18.7754 29.5186 17.7535 9.7954 7.1250 -0.0000 -0.0000 34.5260 -11.0115 34.5448
0.00 0.00 0.00 -2.4058 -68.7784 361.0670 0.0000 0.0000 0.0000 -11.0071 -4.9668 -19.2037 5.1751 13.5783 41.5739 -0.0534 -20.6897 -14.1360 0.5968 -4.9454 -13.7530 0.0000 0.0000 0.0000 14.0720 -5.8662 -13.5483 -6.4357 -14.8377 46.7064 -1.7692 -1.4740 -25.7121 -0.3706 3.9100 -10.8236 -1.1435 0.6172 8.1236 2.9121 0.8229 0.0779 3.5799 0.4538 -4.5400 -3.6861 4.2930 -20.0007 0.4429 6.9781 22.2404 1.7624 2.8974 10.2695 -0.0000 0.0000 0.0000 -56.1584 -9.1339 1.4605 135.5863 -50.4780 -98.2145 -0.0000 0.0000 -14.7458 -12.7807 18.6843 -4.1563 -7.1250 0.0000 -0.0000 -37.2091 45.1278 -0.1371 -0.0000 0.0000 0.0000 50.3001 -3.3192 -5.0358 -145.0956 44.7437 -105.2540 0.0000 -0.0000 -15.8743 28.3768 18.6139 9.7826 7.1250 -0.0000 -0.0000 33.8557 -10.4747 33.9523
0.00 0.00 0.00 -2.7215 -69.4297 359.9840 0.0000 0.0000 0.0000 -11.0004 -3.2173 -16.3526 4.7586 13.1067 39.7692 -0.1153 -21.0413 -13.8933 0.5766 -4.8624 -13.5165 0.0000 0.0000 0.0000 13.8165 -7.1563 -10.9702 -5.9699 -14.3991 44.8606 -1.7793 0.4936 -25.0967 -0.2241 3.0471 -8.4099 -1.3567 1.1272 9.9495 2.8339 1.5309 -2.0014 3.5172 0.8768 -7.8342 -2.8490 7.5999 -17.5571 1.1483 11.1696 25.9481 2.4693 4.8462 11.0567 0.0000 0.0000 0.0000 -33.7202 -19.9196 -23.2647 145.7562 -44.2645 -105.7171 -0.0000 0.0000 -9.6339 -9.1560 16.0949 -2.5585 -7.1250 0.0000 -0.0000 -32.9518 43.3978 1.4772 0.0000 0.0000 0.0000 29.6891 3.6053 -26.2628 -150.1132 40.7961 -108.6644 0.0000 -0.0000 -7.3814 25.8186 20.1746 9.4731 7.1250 -0.0000 -0.0000 32.4006 -9.5228 32.5028
0.00 0.00 0.00 2.6695 -72.6487 353.9790 0.0000 0.0000 0.0000 -11.8621 -2.2026 -14.8504 4.2048 12.4280 37.2634 0.1894 -17.0402 -13.7455 1.5947 -7.9653 -22.6086 0.0000 0.0000 0.0000 13.4769 -4.3610 -12.0563 -6.4197 -14.8231 46.6437 -1.9395 0.7510 -26.1395 -0.0241 1.0032 -2.7576 0.2487 1.6226 15.7953 1.7534 2.3959 -2.0499 1.1736 1.1797 -11.2207 -4.8762 10.3017 -16.5993 2.4795 15.1602 26.2436 3.6758 6.6530 10.5729 -0.0000 -0.0000 0.0000 -23.1090 -7.6649 -29.0978 132.6712 -51.8597 -95.9432 -0.0000 0.0000 -12.3884 -4.6878 9.5626 -0.7805 -7.1250 0.0000 -0.0000 -26.7112 38.1130 4.9620 -0.0000 -0.0000 0.0000 12.7359 -6.5231 -38.0713 -139.3846 48.4303 -101.1016 0.0000 -0.0000 -1.2388 21.6668 21.6396 8.3347 7.1250 -0.0000 -0.0000 30.1555 -8.7442 29.8421
